<svg width="30" height="48" viewBox="0 0 30 48" fill="none" xmlns="http://www.w3.org/2000/svg">
<path fill-rule="evenodd" clip-rule="evenodd" d="M7.09578 46.2727C12.0231 46.2727 14.7231 47.4399 14.7231 47.4399C14.7836 47.4162 14.8678 47.3851 14.9753 47.3483L15.1152 47.3015C16.1222 46.9734 18.5999 46.3324 22.2875 46.3324C27.215 46.3324 29.3833 47.1673 29.3833 47.1673L28.9236 47.8034C28.9236 47.8034 27.609 46.9883 21.8269 47.048C17.9226 47.0882 16.2356 47.5386 15.1134 47.8731C14.9901 47.9277 14.8569 47.9827 14.785 48L13.9542 47.7437C12.6793 47.4465 11.2229 47.0262 7.55671 46.9883C2.40687 46.9352 0.800782 47.5759 0.511056 47.7167L0.485323 47.7296C0.467772 47.7388 0.459747 47.7437 0.459747 47.7437L0 47.1076C0 47.1076 2.16858 46.2727 7.09578 46.2727ZM15.2508 0V2.39853C15.545 2.57171 20.1928 5.4015 20.9214 11.4842H23.2141V12.5363H20.9671V40.0046C23.1127 40.1029 24.876 40.5244 25.4399 40.6726L25.5314 40.697C25.5956 40.7145 25.6292 40.7243 25.6292 40.7243L27.1668 43.0353L27.5477 43.6078L27.747 43.9071L28.1281 44.4797L29.44 46.4516C29.44 46.4516 25.7595 45.4376 21.9489 45.4376C18.9342 45.4376 16.2402 46.1543 15.1806 46.4765L14.7366 46.6305L14.2595 46.4766C13.2 46.1543 10.506 45.4376 7.49084 45.4376C3.68021 45.4376 0 46.4516 0 46.4516L1.31193 44.4797L1.69283 43.9071L1.89502 43.6036L2.27328 43.0353L3.81063 40.7243C3.81063 40.7243 3.84432 40.7145 3.90857 40.697L4.00015 40.6725C4.56467 40.5243 6.32998 40.1025 8.47752 40.0048V12.5363H6.22588V11.4842H8.52305C9.15827 6.18152 12.771 3.35153 13.8821 2.59815L13.9914 2.52536C14.0905 2.46048 14.1587 2.41928 14.1892 2.40126V0H15.2508ZM4.27156 41.3802L1.31377 45.4376C1.31377 45.4376 7.70996 43.5492 14.0444 45.5062L14.2615 45.5749C14.4145 45.6242 14.5673 45.676 14.7199 45.7301C14.8727 45.676 15.0255 45.6242 15.1782 45.5749L15.3913 45.4973C21.7298 43.5492 28.1261 45.4376 28.1261 45.4376L25.1684 41.3802C20.8323 39.8289 15.2504 41.4399 15.2504 41.4399L14.7678 41.5979L14.7034 41.619L14.1892 41.4399C14.1892 41.4399 8.60754 39.8289 4.27156 41.3802ZM13.9983 42.0206C14.1122 42.0186 14.1975 42.0385 14.2547 42.0801C14.3623 42.1581 14.4498 42.3066 14.5174 42.5259C14.6008 42.8043 14.6555 43.0966 14.6818 43.4024L14.8303 42.8693C14.9304 42.6142 15.0623 42.3351 15.2259 42.0312L15.7351 42.0225C15.7045 42.1024 15.564 42.3372 15.3127 42.7273C15.2116 42.8856 15.1385 43.0049 15.0939 43.0853C15.0709 43.1262 15.0464 43.1673 15.0204 43.2097L14.7357 43.6694C14.7459 43.7411 14.7531 43.8138 14.7577 43.8868C14.7623 43.9604 14.7644 44.0209 14.7644 44.0686C14.7631 44.2422 14.7441 44.3782 14.7086 44.4763C14.6819 44.5502 14.6451 44.6023 14.598 44.6336C14.5513 44.6643 14.4991 44.6806 14.4419 44.6815C14.372 44.6826 14.3114 44.662 14.2603 44.6196C14.209 44.5775 14.184 44.5235 14.1845 44.4579C14.1857 44.357 14.2124 44.2419 14.2646 44.1129C14.3173 43.9838 14.394 43.842 14.4952 43.6871C14.3816 43.0543 14.2917 42.6768 14.2259 42.5535C14.1603 42.4301 14.0757 42.3694 13.9721 42.3711C13.9092 42.3724 13.8595 42.3876 13.8234 42.4174C13.7873 42.4468 13.7557 42.5324 13.7287 42.6744L13.5332 42.6778C13.5333 42.6618 13.5334 42.6472 13.5335 42.6341L13.5341 42.572L13.5342 42.5536C13.5361 42.3729 13.5857 42.2339 13.683 42.1376C13.7611 42.0618 13.8662 42.0228 13.9983 42.0206ZM21.0108 41.966C21.4403 41.8016 21.6449 41.8298 21.9666 41.8638C22.2154 41.8898 22.5255 41.9736 22.5813 42.1797C22.6377 42.3867 22.401 42.5419 22.3206 42.4283C22.1226 42.1488 22.0238 42.0803 21.6811 42.0527C21.4957 42.045 21.2471 42.0874 21.0701 42.1763C20.9452 42.2463 20.5935 42.4668 20.6265 42.9152C20.6684 43.1303 21.1345 43.2267 21.3674 43.2404C22.1612 43.2872 22.3556 43.5533 22.358 43.7485C22.3657 43.954 22.1143 44.4112 21.6224 44.3745C21.6224 44.3745 21.0618 44.4402 21.1784 44.1325C21.2253 44.0094 21.3477 43.982 21.4626 44.1045C21.661 44.316 21.9064 44.1059 21.9618 44.049C22.1401 43.8672 22.0616 43.6254 21.8254 43.5805C21.6932 43.5554 21.2011 43.5537 20.9655 43.5423C20.5174 43.5208 20.1674 43.3913 20.1614 42.9957C20.1579 42.3677 20.746 42.0674 21.0108 41.966ZM7.17724 41.2175C7.30385 41.2155 7.41131 41.2509 7.49974 41.3241C7.62452 41.4292 7.7245 41.6122 7.79929 41.8723L8.18398 43.1968C8.24014 43.3887 8.30325 43.5112 8.37331 43.5642C8.43656 43.6146 8.51134 43.6387 8.59729 43.6376C8.67811 43.6363 8.74542 43.6144 8.79882 43.572C8.85235 43.5297 8.88633 43.4474 8.90063 43.3253L9.09954 43.322C9.09902 43.3782 9.09862 43.4143 9.09849 43.4307C9.09666 43.6042 9.03748 43.7457 8.92045 43.8553C8.82821 43.9414 8.70855 43.9859 8.5612 43.9885C8.42987 43.9904 8.31493 43.9522 8.21626 43.873C8.11733 43.7941 8.02877 43.619 7.95004 43.3483L7.77042 42.6487L6.96822 43.9761L6.44077 43.985L7.5971 42.1413L7.55957 42.0047C7.51116 41.8251 7.44949 41.7074 7.3747 41.6509C7.29991 41.5945 7.2187 41.5672 7.13105 41.5686C7.05246 41.5699 6.98266 41.5931 6.92165 41.6383C6.8605 41.6834 6.81734 41.7698 6.79201 41.8972L6.60701 41.9002C6.61462 41.6704 6.6835 41.4923 6.81405 41.3655C6.9122 41.2695 7.03317 41.2201 7.17724 41.2175ZM11.3799 42.0455C11.5812 42.042 11.778 42.0807 11.9709 42.1609C12.1635 42.2413 12.3101 42.3548 12.4104 42.5009C12.5108 42.6472 12.56 42.7948 12.5587 42.944C12.557 43.1099 12.5007 43.2718 12.3902 43.4302C12.2798 43.5881 12.127 43.7149 11.9323 43.8106C11.7373 43.9062 11.5211 43.956 11.2836 43.9599C10.9502 43.9657 10.6684 43.8825 10.4384 43.7102C10.2083 43.5383 10.0946 43.3271 10.097 43.0764C10.0988 42.9071 10.1583 42.7404 10.2756 42.5766C10.3927 42.4131 10.5537 42.2843 10.7587 42.191C10.9636 42.0976 11.1707 42.0491 11.3799 42.0455ZM17.8732 41.9331C18.0746 41.9298 18.2717 41.9682 18.4644 42.0488C18.6569 42.1289 18.8035 42.2424 18.9039 42.3885C19.0041 42.5348 19.0534 42.6826 19.0521 42.8315C19.0504 42.9976 18.9945 43.1596 18.8836 43.3176C18.7732 43.4756 18.6204 43.6025 18.4259 43.6982C18.2308 43.7939 18.0145 43.8435 17.777 43.8477C17.4435 43.8531 17.1617 43.7699 16.9319 43.5981C16.7017 43.4259 16.5879 43.2146 16.5905 42.9642C16.5921 42.7947 16.6516 42.6283 16.7691 42.4644C16.8862 42.3006 17.0471 42.1719 17.2521 42.0784C17.457 41.9852 17.6639 41.9367 17.8732 41.9331ZM11.2783 42.252C11.1165 42.2546 10.9736 42.3116 10.8491 42.4231C10.7247 42.5342 10.6615 42.6969 10.6594 42.9113C10.6569 43.1567 10.7247 43.3594 10.8632 43.5191C11.0015 43.679 11.1788 43.7572 11.395 43.7533C11.5534 43.7507 11.6929 43.6936 11.8129 43.5819C11.9332 43.4701 11.9945 43.3035 11.9967 43.0828C11.9996 42.7844 11.9084 42.56 11.7233 42.4092C11.5903 42.3015 11.4421 42.2491 11.2783 42.252ZM17.7717 42.1395C17.6099 42.1421 17.467 42.1992 17.3426 42.3106C17.2181 42.4218 17.1549 42.5846 17.1528 42.7988C17.1503 43.0443 17.2181 43.247 17.3567 43.4068C17.495 43.5666 17.6723 43.6447 17.8884 43.6408C18.0468 43.6382 18.1863 43.581 18.3063 43.4695C18.4267 43.3578 18.4879 43.1912 18.4902 42.9705C18.4933 42.6722 18.4021 42.4475 18.2167 42.2967C18.0835 42.1892 17.9354 42.1367 17.7717 42.1395ZM13.1247 33.9028C13.0577 34.3281 12.9922 34.7449 12.9308 35.1368C13.2361 35.4859 13.5576 35.6787 13.5576 35.6787L13.4476 36.0785H12.7831C12.6435 36.9686 12.549 37.5753 12.549 37.5753H11.5233V40.1227C12.4255 40.2442 13.3299 40.4554 14.1892 40.7901V33.9362H13.1247V33.9028ZM16.32 33.9362H15.2508V40.7893C16.1116 40.4541 17.0175 40.2429 17.9214 40.1214V37.5753H16.8906C16.8906 37.5753 16.796 36.9686 16.6564 36.0785H16.017L15.9071 35.6787C15.9071 35.6787 16.2136 35.4951 16.5126 35.1611C16.4516 34.7726 16.3867 34.3587 16.32 33.9362ZM10.9239 12.5363H10.4557V40.0185C10.6112 40.0282 10.7673 40.0404 10.9239 40.055V12.5363ZM18.9889 12.5363H18.5206V40.054C18.6773 40.0395 18.8333 40.0273 18.9889 40.0177V12.5363ZM9.78145 12.5363H9.30163V39.9845C9.46026 39.984 9.62033 39.9858 9.78145 39.9895V12.5363ZM20.1428 12.5363H19.663V39.9888C19.8243 39.9852 19.9842 39.9835 20.1428 39.984V12.5363ZM12.3219 36.0785H11.5233V37.1753H12.1451C12.1451 37.1753 12.2145 36.7448 12.3219 36.0785ZM17.9214 36.0785H17.1179C17.2249 36.7448 17.2945 37.1753 17.2945 37.1753H17.9214V36.0785ZM12.2812 12.5363H11.5233V35.6453H12.3915C12.4045 35.5639 12.4182 35.4797 12.432 35.3941C12.1584 34.9781 11.696 34.1109 11.9626 33.312C12.1758 32.673 12.5397 32.2686 12.9759 32.0159C13.2332 30.419 13.4597 29.0143 13.4967 28.7877C13.5836 28.2531 13.7587 27.5607 14.1892 27.2659V14.4269C13.2366 14.2224 12.4875 13.48 12.2812 12.5363ZM17.9214 12.5363H17.1588C16.9523 13.48 16.2032 14.2224 15.2508 14.4269V27.266C15.6809 27.5611 15.8559 28.2532 15.9429 28.7877C15.9796 29.0135 16.2048 30.41 16.461 32.0006C16.9096 32.252 17.2842 32.6596 17.502 33.312C17.7752 34.1303 17.2827 35.0217 17.0125 35.4249C17.0247 35.5 17.0365 35.5736 17.0481 35.6453H17.9214V12.5363ZM16.5657 32.6502C16.6733 33.319 16.7828 33.9983 16.883 34.6206C17.0391 34.3037 17.1259 33.9237 17.0418 33.4902C16.9745 33.1445 16.7979 32.8672 16.5657 32.6502ZM12.869 32.681C12.6521 32.8935 12.4869 33.1601 12.4229 33.4902C12.3419 33.9059 12.4184 34.2728 12.5628 34.5817C12.6597 33.9796 12.7651 33.326 12.869 32.681ZM14.1892 32.0527C13.9264 32.0953 13.6405 32.1811 13.3751 32.3185C13.312 32.7161 13.2473 33.1255 13.1832 33.5322H14.1892V32.0527ZM15.2508 32.0485V33.5322H16.2562C16.1914 33.121 16.1259 32.707 16.0623 32.3053C15.7962 32.1716 15.5115 32.0882 15.2508 32.0485ZM14.1892 27.9544C14.0278 28.2242 13.9868 28.6366 13.9003 29.0875C13.8492 29.3547 13.6695 30.4671 13.4569 31.8025C13.6927 31.7262 13.9399 31.6811 14.1892 31.6565V27.9544ZM15.2508 27.9552V31.6542C15.4992 31.6772 15.7456 31.7199 15.9811 31.7937C15.7692 30.4622 15.5902 29.3542 15.5393 29.0875C15.4529 28.637 15.4119 28.2249 15.2508 27.9552ZM14.1892 12.5363H12.9536C13.1313 13.1226 13.5973 13.5846 14.1892 13.7606V12.5363ZM16.4862 12.5363H15.2508V13.7606C15.8424 13.5846 16.3087 13.1226 16.4862 12.5363ZM14.1892 3.59689C10.8441 5.23287 9.7228 9.74611 9.40843 11.4842H9.87487C10.9218 6.68671 13.6653 5.4175 14.1892 5.21636V3.59689ZM15.2508 3.59455V5.21454C15.762 5.40957 18.5194 6.67124 19.5696 11.4842H20.036C19.7217 9.74533 18.5994 5.22858 15.2508 3.59455ZM14.1892 5.9962C11.9441 6.83974 10.8926 10.2088 10.5696 11.4842H11.0671C11.5241 9.29964 13.6867 7.82942 14.1892 7.51413V5.9962ZM15.2508 5.99425V7.51114C15.7441 7.82019 17.9189 9.29288 18.3774 11.4842H18.875C18.5517 10.2079 17.499 6.8348 15.2508 5.99425ZM14.1892 8.3721C12.6402 9.2566 11.9824 10.6155 11.7097 11.4842H12.2812C12.4875 10.5404 13.2366 9.79812 14.1892 9.59347V8.3721ZM15.2508 8.36938V9.59347C16.2032 9.79812 16.9523 10.5404 17.1588 11.4842H17.7351C17.462 10.6146 16.803 9.25374 15.2508 8.36938ZM14.1892 10.2599C13.5973 10.436 13.1313 10.8979 12.9536 11.4842H14.1892V10.2599ZM15.2508 10.2599V11.4842H16.4862C16.3088 10.8979 15.8424 10.4358 15.2508 10.2599Z" fill="white"/>
</svg>
